<svg xmlns="http://www.w3.org/2000/svg" width="226" height="22" viewBox="0 0 226 22"><g><g><path fill="#222" d="M9.568 3.967c-1.89 0-3.12.69-3.12 1.98 0 4.26 11.28 1.95 11.25 9.48 0 3.93-3.42 6.21-8.04 6.21-3.36 0-6.63-1.35-8.88-3.36l1.68-3.39c2.16 1.92 5.01 3.09 7.26 3.09s3.6-.84 3.6-2.31c0-4.38-11.28-1.89-11.28-9.36 0-3.66 3.15-6 7.86-6 2.79 0 5.58.9 7.59 2.22l-1.62 3.48c-2.25-1.35-4.68-2.04-6.3-2.04zm26.88-3.48v3.57h-6.54v17.43h-4.05V4.056h-6.54V.487zm7.02 0v21h-4.02v-21zm14.82 3.45c-3.96 0-7.05 3.06-7.05 6.96 0 3.93 3.09 6.99 7.05 6.99 2.01 0 4.14-.93 5.7-2.46l2.37 2.64c-2.16 2.19-5.25 3.6-8.28 3.6-6.18 0-10.95-4.65-10.95-10.71 0-6 4.83-10.59 11.1-10.59 3 0 6.06 1.29 8.1 3.36l-2.34 2.94c-1.5-1.68-3.63-2.73-5.7-2.73zm25.44 17.55l-6.54-9-3.36 3.72v5.28h-4.02v-21h4.02v10.26l9.51-10.26h4.68l-8.01 8.88 8.58 12.12zm31.949-21v3.57h-6.54v17.43h-4.05V4.056h-6.54V.487zm7.02 0v8.97h10.47V.487h4.02v21h-4.02v-8.52h-10.47v8.52h-4.02v-21zm35.22 0v3.51h-11.37v5.19h10.2v3.51h-10.2v5.28h11.73v3.51h-15.75v-21zm25.32 10.5c0 6.03-4.86 10.68-11.19 10.68-6.33 0-11.19-4.65-11.19-10.68 0-6.06 4.86-10.62 11.19-10.62 6.33 0 11.19 4.59 11.19 10.62zm-18.27 0c0 3.96 3.27 7.08 7.14 7.08 3.84 0 7.02-3.12 7.02-7.08s-3.18-7.02-7.02-7.02c-3.9 0-7.14 3.06-7.14 7.02zm35.1 10.5l-3.63-6.21c-.24.03-.48.03-.75.03h-4.74v6.18h-4.02v-21h8.76c5.43 0 8.52 2.61 8.52 7.23 0 3.3-1.47 5.67-4.17 6.81l4.62 6.96zm-9.12-9.72h4.74c3 0 4.68-1.29 4.68-3.93 0-2.58-1.68-3.84-4.68-3.84h-4.74zm26.82 2.85v6.87h-4.02v-6.72l-7.83-14.28h4.08l5.73 9.87 5.64-9.87h4.05z"/></g></g></svg>